<svg width="80" height="78" viewBox="0 0 80 78" fill="none" xmlns="http://www.w3.org/2000/svg">
<path d="M78.3254 34.8781L72.8707 29.2303C72.4496 28.7958 72.2488 28.1795 72.3338 27.5808L73.429 19.8083C73.879 16.6213 71.7466 13.6911 68.579 13.1367L60.8471 11.7808C60.2502 11.6764 59.7249 11.2941 59.4429 10.757L55.7691 3.82673C54.2605 0.979696 50.8109 -0.140617 47.9174 1.27704L40.8693 4.72673C40.3246 4.99329 39.6755 4.99329 39.1309 4.72673L32.0827 1.27704C29.1874 -0.140773 25.7415 0.979539 24.231 3.82673L20.5573 10.757C20.2713 11.3017 19.7576 11.6727 19.153 11.7808L11.423 13.1367C8.25336 13.6891 6.12289 16.6213 6.57289 19.8063L7.66617 27.5806C7.75117 28.1872 7.55805 28.7897 7.1293 29.2302L1.67461 34.878C-0.558203 37.1881 -0.558203 40.8116 1.67461 43.1217L7.1293 48.7695C7.55039 49.2041 7.75117 49.8203 7.66617 50.4191L6.57102 58.1916C6.12102 61.3786 8.25336 64.3088 11.421 64.8631L19.1529 66.2191C19.7498 66.3234 20.2751 66.7058 20.5571 67.2428L24.2309 74.1731C25.7413 77.0202 29.1891 78.1405 32.0826 76.7228L39.1307 73.2731C39.6754 73.0066 40.3245 73.0066 40.8691 73.2731L47.9173 76.7228C48.7652 77.1381 49.6595 77.3352 50.5402 77.3352C52.6649 77.3352 54.7027 76.1859 55.7688 74.1733L59.4426 67.243C59.7285 66.6983 60.2423 66.3275 60.8468 66.2192L68.5768 64.8633C71.7465 64.3109 73.877 61.3788 73.4268 58.1938L72.3335 50.4194C72.2485 49.8128 72.4416 49.2103 72.8704 48.7699L78.3251 43.122C80.5584 40.8117 80.5584 37.1883 78.3254 34.8781ZM75.4802 40.3752L70.0255 46.0191C68.7449 47.3441 68.1598 49.1481 68.4166 50.9716L69.5099 58.7441C69.6605 59.8064 68.9498 60.7838 67.8952 60.9692L60.1613 62.3252C58.3457 62.6439 56.8101 63.7622 55.9468 65.3905L52.273 72.3189C51.7709 73.2692 50.6235 73.6439 49.6559 73.1708L42.6077 69.7191C41.7926 69.3213 40.8963 69.1203 40.0002 69.1203C39.1041 69.1203 38.2077 69.3213 37.3927 69.7209L30.3446 73.1688C29.3807 73.6439 28.2296 73.2692 27.7274 72.3189L24.0537 65.3886C23.1902 63.7584 21.6527 62.642 19.8352 62.3252L12.1052 60.9674C11.0507 60.7819 10.3398 59.8066 10.4885 58.7441L11.5837 50.9716C11.8405 49.1481 11.2552 47.3442 9.97664 46.0211L4.52008 40.3752C3.77648 39.6025 3.77648 38.3974 4.52008 37.6247L9.97477 31.9808C11.2554 30.6558 11.8405 28.8517 11.5837 27.0283L10.4904 19.2558C10.3398 18.1934 11.0505 17.2161 12.1051 17.0306L19.839 15.6747C21.6546 15.3559 23.1902 14.2377 24.0535 12.6094L27.7273 5.68095C28.2295 4.73063 29.3807 4.35985 30.3445 4.82907L37.3926 8.28079C39.0227 9.07657 40.9774 9.07845 42.6077 8.27891L49.6559 4.83126C50.6216 4.3561 51.7709 4.73079 52.273 5.6811L55.9468 12.6114C56.8102 14.2416 58.3477 15.3581 60.1652 15.6749L67.8952 17.0327C68.9498 17.2181 69.6607 18.1934 69.512 19.2559L68.4168 27.0284C68.1599 28.8519 68.7452 30.6558 70.0238 31.9789L75.4804 37.6247C76.224 38.3974 76.224 39.6027 75.4802 40.3752Z" fill="url(#paint0_linear_1376_1721)"/>
<path d="M53.2634 25.7357C52.4907 24.9631 51.2392 24.9631 50.4665 25.7357L26.7318 49.4704C25.9592 50.2431 25.9592 51.4946 26.7318 52.2673C27.1181 52.6536 27.6242 52.8468 28.1303 52.8468C28.6364 52.8468 29.1425 52.6537 29.5287 52.2673L53.2634 28.5326C54.0359 27.76 54.0359 26.5084 53.2634 25.7357Z" fill="url(#paint1_linear_1376_1721)"/>
<path d="M38.0341 29.1147C38.0341 24.7494 34.4839 21.1992 30.1186 21.1992C25.7533 21.1992 22.2031 24.7494 22.2031 29.1147C22.2031 33.48 25.7533 37.0302 30.1186 37.0302C34.4839 37.0302 38.0341 33.48 38.0341 29.1147ZM26.1591 29.1147C26.1591 26.932 27.9361 25.155 30.1188 25.155C32.3014 25.155 34.0784 26.932 34.0784 29.1147C34.0784 31.2973 32.3014 33.0744 30.1188 33.0744C27.9359 33.0744 26.1591 31.2973 26.1591 29.1147Z" fill="url(#paint2_linear_1376_1721)"/>
<path d="M49.8881 40.9688C45.5228 40.9688 41.9727 44.5189 41.9727 48.8842C41.9727 53.2495 45.5228 56.7997 49.8881 56.7997C54.2534 56.7997 57.8036 53.2495 57.8036 48.8842C57.8036 44.5189 54.2534 40.9688 49.8881 40.9688ZM49.8881 52.8437C47.7055 52.8437 45.9284 51.0667 45.9284 48.8841C45.9284 46.7014 47.7055 44.9244 49.8881 44.9244C52.0708 44.9244 53.8478 46.7014 53.8478 48.8841C53.8478 51.0667 52.0708 52.8437 49.8881 52.8437Z" fill="url(#paint3_linear_1376_1721)"/>
<defs>
<linearGradient id="paint0_linear_1376_1721" x1="80.0001" y1="38.9999" x2="0" y2="38.9999" gradientUnits="userSpaceOnUse">
<stop stop-color="#755797"/>
<stop offset="1" stop-color="#9B4DF0"/>
</linearGradient>
<linearGradient id="paint1_linear_1376_1721" x1="53.8428" y1="39.0015" x2="26.1523" y2="39.0015" gradientUnits="userSpaceOnUse">
<stop stop-color="#755797"/>
<stop offset="1" stop-color="#9B4DF0"/>
</linearGradient>
<linearGradient id="paint2_linear_1376_1721" x1="38.0341" y1="29.1147" x2="22.2031" y2="29.1147" gradientUnits="userSpaceOnUse">
<stop stop-color="#755797"/>
<stop offset="1" stop-color="#9B4DF0"/>
</linearGradient>
<linearGradient id="paint3_linear_1376_1721" x1="57.8036" y1="48.8842" x2="41.9727" y2="48.8842" gradientUnits="userSpaceOnUse">
<stop stop-color="#755797"/>
<stop offset="1" stop-color="#9B4DF0"/>
</linearGradient>
</defs>
</svg>
